<svg xmlns="http://www.w3.org/2000/svg" width="27.229" height="22.857" viewBox="0 0 27.229 22.857">
  <g id="Group_175" data-name="Group 175" transform="translate(-65.727 -155.625)">
    <g id="Icon_feather-users" data-name="Icon feather-users" transform="translate(66.977 157)">
      <path id="Path_500" data-name="Path 500" d="M19.318,26.744V24.5a4.5,4.5,0,0,0-4.5-4.5H5.829a4.5,4.5,0,0,0-4.5,4.5v2.248" transform="translate(-1.333 -6.512)" fill="none" stroke="#fff" stroke-linecap="round" stroke-linejoin="round" stroke-width="2.5"/>
      <path id="Path_501" data-name="Path 501" d="M15.659,8.5a4.5,4.5,0,1,1-4.5-4.5,4.5,4.5,0,0,1,4.5,4.5Z" transform="translate(-2.171 -4)" fill="none" stroke="#fff" stroke-linecap="round" stroke-linejoin="round" stroke-width="2.5"/>
      <path id="Path_502" data-name="Path 502" d="M30.039,26.771V24.523a4.5,4.5,0,0,0-3.372-4.35" transform="translate(-5.31 -6.539)" fill="none" stroke="#fff" stroke-linecap="round" stroke-linejoin="round" stroke-width="2.5"/>
      <path id="Path_503" data-name="Path 503" d="M21.333,4.173a4.5,4.5,0,0,1,0,8.711" transform="translate(-4.473 -4.027)" fill="none" stroke="#fff" stroke-linecap="round" stroke-linejoin="round" stroke-width="2.5"/>
    </g>
  </g>
</svg>
