<svg xmlns="http://www.w3.org/2000/svg" width="20.044" height="20.044" viewBox="0 0 20.044 20.044">
  <path id="Icon_ionic-ios-close-circle" data-name="Icon ionic-ios-close-circle" d="M12.272,2.25A10.022,10.022,0,1,0,22.294,12.272,10.02,10.02,0,0,0,12.272,2.25ZM14.811,15.9l-2.539-2.539L9.733,15.9a.77.77,0,1,1-1.089-1.089l2.539-2.539L8.644,9.733A.77.77,0,0,1,9.733,8.644l2.539,2.539,2.539-2.539A.77.77,0,1,1,15.9,9.733l-2.539,2.539L15.9,14.811a.774.774,0,0,1,0,1.089A.765.765,0,0,1,14.811,15.9Z" transform="translate(-2.25 -2.25)" fill="#fff"/>
</svg>
