<svg xmlns="http://www.w3.org/2000/svg" width="20.028" height="20.028" viewBox="0 0 20.028 20.028">
  <g id="Icon_ionic-ios-close-circle-outline" data-name="Icon ionic-ios-close-circle-outline" transform="translate(-2.25 -2.25)">
    <path id="Path_31410" data-name="Path 31410" d="M15.727,14.639,13.19,12.1l2.537-2.537a.769.769,0,0,0-1.088-1.088L12.1,11.014,9.565,8.477A.769.769,0,0,0,8.477,9.565L11.014,12.1,8.477,14.639a.744.744,0,0,0,0,1.088.764.764,0,0,0,1.088,0L12.1,13.19l2.537,2.537a.773.773,0,0,0,1.088,0A.764.764,0,0,0,15.727,14.639Z" transform="translate(0.162 0.162)" fill="#fff"/>
    <path id="Path_31411" data-name="Path 31411" d="M12.264,3.6A8.662,8.662,0,1,1,6.135,6.135,8.609,8.609,0,0,1,12.264,3.6m0-1.348A10.014,10.014,0,1,0,22.278,12.264,10.012,10.012,0,0,0,12.264,2.25Z" transform="translate(0 0)" fill="#fff"/>
  </g>
</svg>
