<svg id="Component_20_1" data-name="Component 20 – 1" xmlns="http://www.w3.org/2000/svg" width="36" height="36" viewBox="0 0 36 36">
  <rect id="Rectangle_2024" data-name="Rectangle 2024" width="36" height="36" rx="10" fill="#00adee"/>
  <path id="Icon_metro-question" data-name="Icon metro-question" d="M9.571,12.928h2v2h-2Zm4-7a1,1,0,0,1,1,1v3l-3,2h-2v-1l3-2v-1h-5v-2h6Zm-3-2.5a6.5,6.5,0,1,0,4.6,1.9,6.457,6.457,0,0,0-4.6-1.9Zm0-1.5a8,8,0,1,1-8,8,8,8,0,0,1,8-8Z" transform="translate(7.715 8.248)" fill="#fff"/>
</svg>
