<svg id="Component_19_1" data-name="Component 19 – 1" xmlns="http://www.w3.org/2000/svg" width="36" height="36" viewBox="0 0 36 36">
  <rect id="Rectangle_2024" data-name="Rectangle 2024" width="36" height="36" rx="10" fill="#911fff"/>
  <g id="Icon_feather-headphones" data-name="Icon feather-headphones" transform="translate(5.788 5.188)">
    <path id="Path_31465" data-name="Path 31465" d="M4.5,17.729V12.438a8,8,0,0,1,16,0v5.292" transform="translate(0 0)" fill="none" stroke="#fff" stroke-linecap="round" stroke-linejoin="round" stroke-width="2"/>
    <path id="Path_31466" data-name="Path 31466" d="M20.5,25.618a1.813,1.813,0,0,1-1.778,1.847h-.889a1.813,1.813,0,0,1-1.778-1.847V22.847A1.813,1.813,0,0,1,17.833,21H20.5Zm-16,0a1.813,1.813,0,0,0,1.778,1.847h.889a1.813,1.813,0,0,0,1.778-1.847V22.847A1.813,1.813,0,0,0,7.167,21H4.5Z" transform="translate(0 -6.965)" fill="none" stroke="#fff" stroke-linecap="round" stroke-linejoin="round" stroke-width="2"/>
  </g>
</svg>
