<svg xmlns="http://www.w3.org/2000/svg" width="92" height="92" viewBox="0 0 92 92">
  <path id="Icon_ionic-ios-checkmark-circle" data-name="Icon ionic-ios-checkmark-circle" d="M49.375,3.375a46,46,0,1,0,46,46A45.993,45.993,0,0,0,49.375,3.375ZM72.928,36.659,43.36,66.36h-.022a3.994,3.994,0,0,1-2.565,1.216,3.872,3.872,0,0,1-2.588-1.261L25.8,53.931a.881.881,0,0,1,0-1.261l3.937-3.937a.855.855,0,0,1,1.238,0l9.819,9.819,26.981-27.18a.873.873,0,0,1,.619-.265h0a.8.8,0,0,1,.619.265l3.87,4A.872.872,0,0,1,72.928,36.659Z" transform="translate(-3.375 -3.375)" fill="#73be44"/>
</svg>
