<svg id="Component_21_1" data-name="Component 21 – 1" xmlns="http://www.w3.org/2000/svg" width="42" height="42" viewBox="0 0 42 42">
  <g id="Group_156" data-name="Group 156">
    <path id="Path_463" data-name="Path 463" d="M21,0A21,21,0,1,1,0,21,21,21,0,0,1,21,0Z" fill="#ffcb05" opacity="0.25"/>
  </g>
  <path id="Icon_metro-warning" data-name="Icon metro-warning" d="M11.59,3.562l7.559,15.065H4.031L11.59,3.562Zm0-1.634a1.3,1.3,0,0,0-1.072.786l-7.7,15.345c-.59,1.049-.088,1.907,1.115,1.907H19.246c1.2,0,1.7-.858,1.115-1.907h0l-7.7-15.345a1.3,1.3,0,0,0-1.072-.786Zm1.127,14.656a1.127,1.127,0,1,1-1.127-1.127A1.127,1.127,0,0,1,12.717,16.584ZM11.59,14.329A1.127,1.127,0,0,1,10.462,13.2V9.82a1.127,1.127,0,0,1,2.255,0V13.2A1.127,1.127,0,0,1,11.59,14.329Z" transform="translate(8.929 9.572)" fill="#ffcb05" stroke="#ffcb05" stroke-width="0.5"/>
</svg>
