<svg xmlns="http://www.w3.org/2000/svg" xmlns:xlink="http://www.w3.org/1999/xlink" width="60" height="60" viewBox="0 0 60 60">
  <defs>
    <filter id="Path_31352" x="0" y="0" width="60" height="60" filterUnits="userSpaceOnUse">
      <feOffset dx="6" dy="6" input="SourceAlpha"/>
      <feGaussianBlur stdDeviation="5" result="blur"/>
      <feFlood flood-color="#003763" flood-opacity="0.251"/>
      <feComposite operator="in" in2="blur"/>
      <feComposite in="SourceGraphic"/>
    </filter>
  </defs>
  <g id="Component_17_1" data-name="Component 17 – 1" transform="translate(9 9)">
    <g transform="matrix(1, 0, 0, 1, -9, -9)" filter="url(#Path_31352)">
      <path id="Path_31352-2" data-name="Path 31352" d="M15,0A15,15,0,1,1,0,15,15,15,0,0,1,15,0Z" transform="translate(9 9)" fill="#fff" opacity="0.5"/>
    </g>
    <g id="Icon_feather-eye" data-name="Icon feather-eye" transform="translate(7 9)">
      <path id="Path_422" data-name="Path 422" d="M1.5,11.631S4.315,6,9.242,6s7.742,5.631,7.742,5.631-2.815,5.631-7.742,5.631S1.5,11.631,1.5,11.631Z" transform="translate(-1.5 -6)" fill="none" stroke="#00adee" stroke-linecap="round" stroke-linejoin="round" stroke-width="1"/>
      <path id="Path_423" data-name="Path 423" d="M17.723,15.612A2.112,2.112,0,1,1,15.612,13.5,2.112,2.112,0,0,1,17.723,15.612Z" transform="translate(-7.869 -9.981)" fill="none" stroke="#00adee" stroke-linecap="round" stroke-linejoin="round" stroke-width="1"/>
    </g>
    <g id="Path_31458" data-name="Path 31458" fill="none">
      <path d="M15,0A15,15,0,1,1,0,15,15,15,0,0,1,15,0Z" stroke="none"/>
      <path d="M 15 1 C 11.26046943664551 1 7.744760513305664 2.456249237060547 5.100509643554688 5.100509643554688 C 2.456249237060547 7.744760513305664 1 11.26046943664551 1 15 C 1 18.73952865600586 2.456249237060547 22.25523948669434 5.100509643554688 24.89949035644531 C 7.744760513305664 27.54375076293945 11.26046943664551 29 15 29 C 18.73952865600586 29 22.25523948669434 27.54375076293945 24.89949035644531 24.89949035644531 C 27.54375076293945 22.25523948669434 29 18.73952865600586 29 15 C 29 11.26046943664551 27.54375076293945 7.744760513305664 24.89949035644531 5.100509643554688 C 22.25523948669434 2.456249237060547 18.73952865600586 1 15 1 M 15 0 C 23.28426933288574 0 30 6.715730667114258 30 15 C 30 23.28426933288574 23.28426933288574 30 15 30 C 6.715730667114258 30 0 23.28426933288574 0 15 C 0 6.715730667114258 6.715730667114258 0 15 0 Z" stroke="none" fill="#fff"/>
    </g>
  </g>
</svg>
