<svg xmlns="http://www.w3.org/2000/svg" width="24.697" height="25.012" viewBox="0 0 24.697 25.012">
  <g id="b4558fa5fdf5891958ec4d1077ef04c7" transform="translate(-9.501 -2.163)">
    <path id="Path_31468" data-name="Path 31468" d="M22.192,16.072a.545.545,0,0,1-.251-.063L10.881,10.17a.538.538,0,0,1-.019-.941L22.007,2.748a.538.538,0,0,1,.545,0L33.8,9.468a.542.542,0,0,1,.263.483.536.536,0,0,1-.3.461l-11.336,5.6A.528.528,0,0,1,22.192,16.072Zm-9.951-6.4L22.2,14.93l10.2-5.045L22.272,3.836Z" transform="translate(-0.576)" fill="#004072" stroke="#004072" stroke-width="1"/>
    <path id="Path_31469" data-name="Path 31469" d="M21.955,482.008a.532.532,0,0,1-.261-.068l-11.413-6.3a.538.538,0,1,1,.521-.941l11.157,6.165,10.9-5.878a.538.538,0,1,1,.512.946l-11.16,6.018A.557.557,0,0,1,21.955,482.008Z" transform="translate(0 -460.565)" fill="#004072" stroke="#004072" stroke-width="1"/>
    <path id="Path_31470" data-name="Path 31470" d="M21.955,698.764a.531.531,0,0,1-.261-.068l-11.413-6.3a.538.538,0,0,1,.521-.941l11.157,6.165,10.9-5.88a.538.538,0,0,1,.512.946L22.21,698.7A.557.557,0,0,1,21.955,698.764Z" transform="translate(0 -672.09)" fill="#004072" stroke="#004072" stroke-width="1"/>
  </g>
</svg>
