<svg xmlns="http://www.w3.org/2000/svg" width="31.333" height="26.041" viewBox="0 0 31.333 26.041">
  <g id="Icon_feather-users" data-name="Icon feather-users" transform="translate(-16.748 -14.893)">
    <g id="Icon_feather-users-2" data-name="Icon feather-users" transform="translate(17.748 15.934)">
      <path id="Path_427" data-name="Path 427" d="M23.132,30.612v-2.7A5.408,5.408,0,0,0,17.724,22.5H6.908A5.408,5.408,0,0,0,1.5,27.908v2.7" transform="translate(-1.5 -6.612)" fill="none" stroke="#004072" stroke-linecap="round" stroke-linejoin="round" stroke-width="2"/>
      <path id="Path_428" data-name="Path 428" d="M18.316,9.908A5.408,5.408,0,1,1,12.908,4.5,5.408,5.408,0,0,1,18.316,9.908Z" transform="translate(-2.209 -4.5)" fill="none" stroke="#004072" stroke-linecap="round" stroke-linejoin="round" stroke-width="2"/>
      <path id="Path_429" data-name="Path 429" d="M34.056,30.631v-2.7A5.408,5.408,0,0,0,30,22.7" transform="translate(-4.723 -6.631)" fill="none" stroke="#004072" stroke-linecap="round" stroke-linejoin="round" stroke-width="2"/>
      <path id="Path_430" data-name="Path 430" d="M24,4.7a5.408,5.408,0,0,1,0,10.478" transform="translate(-4.044 -4.519)" fill="none" stroke="#004072" stroke-linecap="round" stroke-linejoin="round" stroke-width="2"/>
    </g>
  </g>
</svg>
