<svg xmlns="http://www.w3.org/2000/svg" width="24.032" height="24.032" viewBox="0 0 24.032 24.032">
  <path id="Icon_material-language" data-name="Icon material-language" d="M15,3A12.016,12.016,0,1,0,27.032,15.016,12.01,12.01,0,0,0,15,3Zm8.327,7.21H19.787a18.8,18.8,0,0,0-1.658-4.278A9.649,9.649,0,0,1,23.331,10.21ZM15.016,5.451a16.927,16.927,0,0,1,2.3,4.758h-4.59A16.927,16.927,0,0,1,15.016,5.451Zm-9.3,11.968a9.4,9.4,0,0,1,0-4.806H9.777a19.845,19.845,0,0,0-.168,2.4,19.845,19.845,0,0,0,.168,2.4Zm.985,2.4h3.545A18.8,18.8,0,0,0,11.9,24.1,9.6,9.6,0,0,1,6.7,19.823Zm3.545-9.613H6.7a9.6,9.6,0,0,1,5.2-4.278A18.8,18.8,0,0,0,10.246,10.21Zm4.77,14.371a16.927,16.927,0,0,1-2.3-4.758h4.59A16.927,16.927,0,0,1,15.016,24.581Zm2.812-7.162H12.2a17.679,17.679,0,0,1-.192-2.4,17.526,17.526,0,0,1,.192-2.4h5.624a17.526,17.526,0,0,1,.192,2.4A17.679,17.679,0,0,1,17.828,17.419Zm.3,6.681a18.8,18.8,0,0,0,1.658-4.278h3.545A9.649,9.649,0,0,1,18.128,24.1Zm2.127-6.681a19.845,19.845,0,0,0,.168-2.4,19.846,19.846,0,0,0-.168-2.4h4.061a9.4,9.4,0,0,1,0,4.806Z" transform="translate(-3 -3)" fill="#004072"/>
</svg>
