<svg xmlns="http://www.w3.org/2000/svg" xmlns:xlink="http://www.w3.org/1999/xlink" width="42.288" height="44.654" viewBox="0 0 42.288 44.654">
  <defs>
    <filter id="Path_372" x="0" y="2.731" width="42.288" height="31" filterUnits="userSpaceOnUse">
      <feOffset dx="6" dy="6" input="SourceAlpha"/>
      <feGaussianBlur stdDeviation="5" result="blur"/>
      <feFlood flood-color="#003763" flood-opacity="0.251"/>
      <feComposite operator="in" in2="blur"/>
      <feComposite in="SourceGraphic"/>
    </filter>
    <filter id="Path_373" x="0.865" y="0" width="40.557" height="44.654" filterUnits="userSpaceOnUse">
      <feOffset dx="6" dy="6" input="SourceAlpha"/>
      <feGaussianBlur stdDeviation="5" result="blur-2"/>
      <feFlood flood-color="#003763" flood-opacity="0.251"/>
      <feComposite operator="in" in2="blur-2"/>
      <feComposite in="SourceGraphic"/>
    </filter>
    <filter id="Path_374" x="4.279" y="6.644" width="31" height="34.096" filterUnits="userSpaceOnUse">
      <feOffset dx="6" dy="6" input="SourceAlpha"/>
      <feGaussianBlur stdDeviation="5" result="blur-3"/>
      <feFlood flood-color="#003763" flood-opacity="0.251"/>
      <feComposite operator="in" in2="blur-3"/>
      <feComposite in="SourceGraphic"/>
    </filter>
    <filter id="Path_375" x="7.009" y="6.644" width="31" height="34.096" filterUnits="userSpaceOnUse">
      <feOffset dx="6" dy="6" input="SourceAlpha"/>
      <feGaussianBlur stdDeviation="5" result="blur-4"/>
      <feFlood flood-color="#003763" flood-opacity="0.251"/>
      <feComposite operator="in" in2="blur-4"/>
      <feComposite in="SourceGraphic"/>
    </filter>
  </defs>
  <g id="Icon_feather-trash-2" data-name="Icon feather-trash-2" transform="translate(9 9.5)">
    <g transform="matrix(1, 0, 0, 1, -9, -9.5)" filter="url(#Path_372)">
      <path id="Path_372-2" data-name="Path 372" d="M4.5,9H16.788" transform="translate(4.5 3.23)" fill="none" stroke="#00adee" stroke-width="1"/>
    </g>
    <g transform="matrix(1, 0, 0, 1, -9, -9.5)" filter="url(#Path_373)">
      <path id="Path_373-2" data-name="Path 373" d="M17.057,5.731v9.557a1.365,1.365,0,0,1-1.365,1.365H8.865A1.365,1.365,0,0,1,7.5,15.288V5.731m2.048,0V4.365A1.365,1.365,0,0,1,10.913,3h2.731a1.365,1.365,0,0,1,1.365,1.365V5.731" transform="translate(2.87 6.5)" fill="none" stroke="#00adee" stroke-width="1"/>
    </g>
    <g transform="matrix(1, 0, 0, 1, -9, -9.5)" filter="url(#Path_374)">
      <path id="Path_374-2" data-name="Path 374" d="M15,16.5v4.1" transform="translate(-1.22 -0.86)" fill="none" stroke="#00adee" stroke-width="1"/>
    </g>
    <g transform="matrix(1, 0, 0, 1, -9, -9.5)" filter="url(#Path_375)">
      <path id="Path_375-2" data-name="Path 375" d="M21,16.5v4.1" transform="translate(-4.49 -0.86)" fill="none" stroke="#00adee" stroke-width="1"/>
    </g>
  </g>
</svg>
