<svg xmlns="http://www.w3.org/2000/svg" xmlns:xlink="http://www.w3.org/1999/xlink" width="60" height="60" viewBox="0 0 60 60">
  <defs>
    <filter id="Path_31351" x="0" y="0" width="60" height="60" filterUnits="userSpaceOnUse">
      <feOffset dx="6" dy="6" input="SourceAlpha"/>
      <feGaussianBlur stdDeviation="5" result="blur"/>
      <feFlood flood-color="#003763" flood-opacity="0.251"/>
      <feComposite operator="in" in2="blur"/>
      <feComposite in="SourceGraphic"/>
    </filter>
    <filter id="Path_372" x="9.04" y="10.541" width="42.288" height="31" filterUnits="userSpaceOnUse">
      <feOffset dx="6" dy="6" input="SourceAlpha"/>
      <feGaussianBlur stdDeviation="5" result="blur-2"/>
      <feFlood flood-color="#003763" flood-opacity="0.251"/>
      <feComposite operator="in" in2="blur-2"/>
      <feComposite in="SourceGraphic"/>
    </filter>
    <filter id="Path_373" x="9.905" y="7.811" width="40.557" height="44.654" filterUnits="userSpaceOnUse">
      <feOffset dx="6" dy="6" input="SourceAlpha"/>
      <feGaussianBlur stdDeviation="5" result="blur-3"/>
      <feFlood flood-color="#003763" flood-opacity="0.251"/>
      <feComposite operator="in" in2="blur-3"/>
      <feComposite in="SourceGraphic"/>
    </filter>
    <filter id="Path_374" x="13.319" y="14.455" width="31" height="34.096" filterUnits="userSpaceOnUse">
      <feOffset dx="6" dy="6" input="SourceAlpha"/>
      <feGaussianBlur stdDeviation="5" result="blur-4"/>
      <feFlood flood-color="#003763" flood-opacity="0.251"/>
      <feComposite operator="in" in2="blur-4"/>
      <feComposite in="SourceGraphic"/>
    </filter>
    <filter id="Path_375" x="16.05" y="14.455" width="31" height="34.096" filterUnits="userSpaceOnUse">
      <feOffset dx="6" dy="6" input="SourceAlpha"/>
      <feGaussianBlur stdDeviation="5" result="blur-5"/>
      <feFlood flood-color="#003763" flood-opacity="0.251"/>
      <feComposite operator="in" in2="blur-5"/>
      <feComposite in="SourceGraphic"/>
    </filter>
  </defs>
  <g id="Component_16_1" data-name="Component 16 – 1" transform="translate(9 9)">
    <g transform="matrix(1, 0, 0, 1, -9, -9)" filter="url(#Path_31351)">
      <path id="Path_31351-2" data-name="Path 31351" d="M15,0A15,15,0,1,1,0,15,15,15,0,0,1,15,0Z" transform="translate(9 9)" fill="#fff" opacity="0.5"/>
    </g>
    <g id="Icon_feather-trash-2" data-name="Icon feather-trash-2" transform="translate(9.04 8.311)">
      <g transform="matrix(1, 0, 0, 1, -18.04, -17.31)" filter="url(#Path_372)">
        <path id="Path_372-2" data-name="Path 372" d="M4.5,9H16.788" transform="translate(13.54 11.04)" fill="none" stroke="#00adee" stroke-width="1"/>
      </g>
      <g transform="matrix(1, 0, 0, 1, -18.04, -17.31)" filter="url(#Path_373)">
        <path id="Path_373-2" data-name="Path 373" d="M17.057,5.731v9.557a1.365,1.365,0,0,1-1.365,1.365H8.865A1.365,1.365,0,0,1,7.5,15.288V5.731m2.048,0V4.365A1.365,1.365,0,0,1,10.913,3h2.731a1.365,1.365,0,0,1,1.365,1.365V5.731" transform="translate(11.91 14.31)" fill="none" stroke="#00adee" stroke-width="1"/>
      </g>
      <g transform="matrix(1, 0, 0, 1, -18.04, -17.31)" filter="url(#Path_374)">
        <path id="Path_374-2" data-name="Path 374" d="M15,16.5v4.1" transform="translate(7.82 6.95)" fill="none" stroke="#00adee" stroke-width="1"/>
      </g>
      <g transform="matrix(1, 0, 0, 1, -18.04, -17.31)" filter="url(#Path_375)">
        <path id="Path_375-2" data-name="Path 375" d="M21,16.5v4.1" transform="translate(4.55 6.95)" fill="none" stroke="#00adee" stroke-width="1"/>
      </g>
    </g>
    <g id="Path_31459" data-name="Path 31459" fill="none">
      <path d="M15,0A15,15,0,1,1,0,15,15,15,0,0,1,15,0Z" stroke="none"/>
      <path d="M 15 1 C 11.26046943664551 1 7.744760513305664 2.456249237060547 5.100509643554688 5.100509643554688 C 2.456249237060547 7.744760513305664 1 11.26046943664551 1 15 C 1 18.73952865600586 2.456249237060547 22.25523948669434 5.100509643554688 24.89949035644531 C 7.744760513305664 27.54375076293945 11.26046943664551 29 15 29 C 18.73952865600586 29 22.25523948669434 27.54375076293945 24.89949035644531 24.89949035644531 C 27.54375076293945 22.25523948669434 29 18.73952865600586 29 15 C 29 11.26046943664551 27.54375076293945 7.744760513305664 24.89949035644531 5.100509643554688 C 22.25523948669434 2.456249237060547 18.73952865600586 1 15 1 M 15 0 C 23.28426933288574 0 30 6.715730667114258 30 15 C 30 23.28426933288574 23.28426933288574 30 15 30 C 6.715730667114258 30 0 23.28426933288574 0 15 C 0 6.715730667114258 6.715730667114258 0 15 0 Z" stroke="none" fill="#fff"/>
    </g>
  </g>
</svg>
