<svg id="Component_22_1" data-name="Component 22 – 1" xmlns="http://www.w3.org/2000/svg" width="42" height="42" viewBox="0 0 42 42">
  <path id="Path_463" data-name="Path 463" d="M21,0A21,21,0,1,1,0,21,21,21,0,0,1,21,0Z" fill="#af251c" opacity="0.25"/>
  <g id="Icon_feather-check-circle" data-name="Icon feather-check-circle" transform="translate(11.999 12)">
    <g id="Icon_ionic-ios-close-circle-outline" data-name="Icon ionic-ios-close-circle-outline">
      <path id="Path_471" data-name="Path 471" d="M19.082,18.1,16.8,15.825l2.278-2.278a.691.691,0,0,0-.977-.977l-2.278,2.278L13.549,12.57a.691.691,0,1,0-.977.977l2.278,2.278L12.572,18.1a.668.668,0,0,0,0,.977.686.686,0,0,0,.977,0L15.827,16.8l2.278,2.278a.694.694,0,0,0,.977,0A.686.686,0,0,0,19.082,18.1Z" transform="translate(-6.836 -6.834)" fill="#af251c" stroke="#af251c" stroke-width="0.5"/>
      <path id="Path_472" data-name="Path 472" d="M12.366,4.585a7.778,7.778,0,1,1-5.5,2.278,7.729,7.729,0,0,1,5.5-2.278m0-1.21a8.991,8.991,0,1,0,8.991,8.991,8.99,8.99,0,0,0-8.991-8.991Z" transform="translate(-3.375 -3.375)" fill="#af251c" stroke="#af251c" stroke-width="0.5"/>
    </g>
  </g>
</svg>
