<svg xmlns="http://www.w3.org/2000/svg" width="28.111" height="35.334" viewBox="0 0 28.111 35.334">
  <g id="Group_176" data-name="Group 176" transform="translate(-65.259 -148.858)">
    <g id="Group_137" data-name="Group 137" transform="translate(65.759 149.358)">
      <g id="Icon_feather-file-text" data-name="Icon feather-file-text">
        <rect id="spacer" width="24.194" height="28.97" fill="rgba(255,255,255,0)" stroke="rgba(0,0,0,0)" stroke-width="1"/>
        <g id="Icon_feather-file-text-2" data-name="Icon feather-file-text" transform="translate(2.546 3.045)">
          <path id="Path_440" data-name="Path 440" d="M17.939,3H8.388A2.388,2.388,0,0,0,6,5.388v19.1a2.388,2.388,0,0,0,2.388,2.388H22.714A2.388,2.388,0,0,0,25.1,24.49V10.163Z" transform="translate(-6 -3)" fill="none" stroke="#00adee" stroke-width="2.2"/>
          <path id="Path_441" data-name="Path 441" d="M21,3v7.163h7.163" transform="translate(-9.061 -3)" fill="none" stroke="#00adee" stroke-width="2.2"/>
          <path id="Path_442" data-name="Path 442" d="M21.551,19.5H12" transform="translate(-7.225 -6.367)" fill="none" stroke="#00adee" stroke-width="2.2"/>
          <path id="Path_443" data-name="Path 443" d="M21.551,25.5H12" transform="translate(-7.225 -7.592)" fill="none" stroke="#00adee" stroke-width="2.2"/>
          <path id="Path_444" data-name="Path 444" d="M14.388,13.5H12" transform="translate(-7.225 -5.143)" fill="none" stroke="#00adee" stroke-width="2.2"/>
        </g>
        <g id="Path_492" data-name="Path 492" transform="translate(-54.582 -37.315)" fill="#004072">
          <path d="M 79.90110015869141 70.55442810058594 L 78.57720184326172 69.66532135009766 L 76.23065948486328 68.08941650390625 L 73.88413238525391 69.66532135009766 L 72.56023406982422 70.55442810058594 L 72.56023406982422 68.95967864990234 L 72.56023406982422 64.49761962890625 C 71.02944946289062 62.92274475097656 70.66806030273438 60.53984069824219 71.70116424560547 58.56657791137695 C 72.58657836914062 56.87542724609375 74.32189178466797 55.82485961914062 76.22988891601562 55.82485961914062 C 76.64115905761719 55.82485961914062 77.05300903320312 55.87495803833008 77.45400238037109 55.97377777099609 C 79.74619293212891 56.53861618041992 81.34558868408203 58.5819091796875 81.34345245361328 60.94266891479492 C 81.34362030029297 62.2742919921875 80.82229614257812 63.54922103881836 79.90110015869141 64.49771118164062 L 79.90110015869141 68.95967864990234 L 79.90110015869141 70.55442810058594 Z M 76.23135375976562 59.13916015625 C 75.23808288574219 59.14048385620117 74.42906188964844 59.94955062866211 74.42793273925781 60.9428596496582 C 74.42793273925781 61.93592834472656 75.23664093017578 62.74462890625 76.23066711425781 62.74462890625 C 77.22470855712891 62.74462890625 78.03340911865234 61.93592834472656 78.03340911865234 60.94189834594727 C 78.03340911865234 59.94811248779297 77.22505187988281 59.13955307006836 76.23135375976562 59.13916015625 Z" stroke="none"/>
          <path d="M 76.22988891601562 56.67485809326172 C 74.67219543457031 56.67481994628906 73.20220184326172 57.53213500976562 72.45420074462891 58.96083831787109 C 71.54377746582031 60.69976043701172 71.93846130371094 62.83558654785156 73.41023254394531 64.13429260253906 L 73.41023254394531 68.95967864990234 L 76.06922149658203 67.17393493652344 C 76.16684722900391 67.10835266113281 76.29447174072266 67.10835266113281 76.39211273193359 67.17393493652344 L 79.05110168457031 68.95967864990234 L 79.05110168457031 64.13429260253906 C 79.96817779541016 63.32679748535156 80.49361419677734 62.1638298034668 80.49345397949219 60.94189453125 C 80.49523162841797 58.97905731201172 79.15646362304688 57.26873016357422 77.25061798095703 56.79908752441406 C 76.91060638427734 56.71530151367188 76.56813049316406 56.67486572265625 76.22988891601562 56.67485809326172 M 76.23069000244141 63.59462738037109 C 76.23059844970703 63.59462738037109 76.23075866699219 63.59462738037109 76.23066711425781 63.59462738037109 C 74.76560211181641 63.59462738037109 73.57793426513672 62.40696716308594 73.57793426513672 60.94189453125 C 73.57958984375 59.47753143310547 74.76628875732422 58.29082489013672 76.23066711425781 58.28916168212891 C 77.69573974609375 58.28916168212891 78.88340759277344 59.47682952880859 78.88340759277344 60.94189453125 C 78.88340759277344 62.40687942504883 77.69563293457031 63.59462738037109 76.23069000244141 63.59462738037109 M 76.22977447509766 54.97486114501953 L 76.22992706298828 54.97486114501953 C 76.70970916748047 54.97486877441406 77.18997955322266 55.03328704833984 77.65739440917969 55.14846801757812 C 80.33064270019531 55.80722045898438 82.19595336914062 58.19020080566406 82.19345092773438 60.94343566894531 C 82.19363403320312 62.37652206420898 81.67575836181641 63.75364303588867 80.7510986328125 64.8272705078125 L 80.7510986328125 72.149169921875 L 76.23066711425781 69.11331176757812 L 71.71022796630859 72.149169921875 L 71.71022796630859 64.82766723632812 C 70.12895202636719 62.9957160949707 69.79915618896484 60.36689758300781 70.94812774658203 58.17232513427734 C 71.98072052001953 56.20005798339844 74.00452423095703 54.97486114501953 76.22977447509766 54.97486114501953 Z M 76.23069000244141 61.89462661743164 C 76.75601959228516 61.89462661743164 77.18341064453125 61.46723937988281 77.18341064453125 60.94189453125 C 77.18341064453125 60.41655731201172 76.75601196289062 59.98915863037109 76.23066711425781 59.98915863037109 C 75.706787109375 59.98976135253906 75.27851867675781 60.41801452636719 75.27793121337891 60.94382476806641 C 75.27793121337891 61.46723937988281 75.70532989501953 61.89462661743164 76.23066711425781 61.89462661743164 L 76.23069000244141 61.89462661743164 Z" stroke="none" fill="#00adee"/>
        </g>
      </g>
    </g>
  </g>
</svg>
