<svg xmlns="http://www.w3.org/2000/svg" xmlns:xlink="http://www.w3.org/1999/xlink" width="112" height="112" viewBox="0 0 112 112">
  <defs>
    <linearGradient id="linear-gradient" x1="0.5" x2="0.5" y2="1" gradientUnits="objectBoundingBox">
      <stop offset="0" stop-color="#003763"/>
      <stop offset="0.656" stop-color="#0077bd"/>
      <stop offset="1" stop-color="#00adee"/>
    </linearGradient>
    <filter id="Rectangle_1962" x="0" y="0" width="112" height="112" filterUnits="userSpaceOnUse">
      <feOffset dx="3" dy="6" input="SourceAlpha"/>
      <feGaussianBlur stdDeviation="5" result="blur"/>
      <feFlood flood-color="#003763" flood-opacity="0.251"/>
      <feComposite operator="in" in2="blur"/>
      <feComposite in="SourceGraphic"/>
    </filter>
  </defs>
  <g id="Group_19141" data-name="Group 19141" transform="translate(12 9)">
    <g transform="matrix(1, 0, 0, 1, -12, -9)" filter="url(#Rectangle_1962)">
      <rect id="Rectangle_1962-2" data-name="Rectangle 1962" width="82" height="82" rx="41" transform="translate(12 9)" fill="url(#linear-gradient)"/>
    </g>
    <g id="Group_19140" data-name="Group 19140" transform="translate(21.026 15.386)">
      <g id="Icon_feather-file-text" data-name="Icon feather-file-text">
        <g id="spacer" fill="rgba(255,255,255,0)" stroke="rgba(0,0,0,0)" stroke-width="1">
          <rect width="36.774" height="44.032" stroke="none"/>
          <rect x="0.5" y="0.5" width="35.774" height="43.032" fill="none"/>
        </g>
        <g id="Icon_feather-file-text-2" data-name="Icon feather-file-text" transform="translate(3.87 4.629)">
          <path id="Path_440" data-name="Path 440" d="M24.146,3H9.629A3.629,3.629,0,0,0,6,6.629V35.663a3.629,3.629,0,0,0,3.629,3.629H31.4a3.629,3.629,0,0,0,3.629-3.629V13.888Z" transform="translate(-6 -3)" fill="none" stroke="#fff" stroke-linecap="round" stroke-linejoin="round" stroke-width="3"/>
          <path id="Path_441" data-name="Path 441" d="M21,3V13.888H31.888" transform="translate(-2.854 -3)" fill="none" stroke="#fff" stroke-linecap="round" stroke-linejoin="round" stroke-width="3"/>
          <path id="Path_442" data-name="Path 442" d="M26.517,19.5H12" transform="translate(-4.742 0.461)" fill="none" stroke="#fff" stroke-linecap="round" stroke-linejoin="round" stroke-width="3"/>
          <path id="Path_443" data-name="Path 443" d="M26.517,25.5H12" transform="translate(-4.742 1.719)" fill="none" stroke="#fff" stroke-linecap="round" stroke-linejoin="round" stroke-width="3"/>
          <path id="Path_444" data-name="Path 444" d="M15.629,13.5H12" transform="translate(-4.742 -0.798)" fill="none" stroke="#fff" stroke-linecap="round" stroke-linejoin="round" stroke-width="3"/>
        </g>
        <g id="Path_492" data-name="Path 492" transform="translate(-44.572 -28.516)" fill="#007ac0">
          <path d="M 82.62046051025391 75.36286926269531 L 80.28417205810547 73.79385375976562 L 77.47606658935547 71.90796661376953 L 74.66795349121094 73.79385375976562 L 72.3316650390625 75.36286926269531 L 72.3316650390625 72.54861450195312 L 72.3316650390625 66.94331359863281 C 70.32918548583984 64.78486633300781 69.87718200683594 61.58831405639648 71.26744842529297 58.93290328979492 C 72.4810791015625 56.61485290527344 74.85971069335938 55.17485427856445 77.47508239746094 55.17485427856445 C 78.03884887695312 55.17485427856445 78.60334777832031 55.24352264404297 79.15290069580078 55.37894439697266 C 82.29482269287109 56.15319442749023 84.48712158203125 58.95394134521484 84.48419189453125 62.18985366821289 C 84.48442840576172 63.9596061706543 83.81256103515625 65.65647888183594 82.62046051025391 66.94328308105469 L 82.62046051025391 72.54861450195312 L 82.62046051025391 75.36286926269531 Z M 77.47727203369141 60.26077270507812 C 76.41484832763672 60.26229858398438 75.54953765869141 61.12770843505859 75.54833221435547 62.19019317626953 C 75.54833221435547 63.25143432617188 76.41310882568359 64.11619567871094 77.47607421875 64.11619567871094 C 78.53900909423828 64.11619567871094 79.40377807617188 63.25143432617188 79.40377807617188 62.18849182128906 C 79.40377807617188 61.12593078613281 78.53968048095703 60.26140594482422 77.47727203369141 60.26077270507812 Z" stroke="none"/>
          <path d="M 77.47508239746094 56.67485809326172 C 75.46231079101562 56.67481231689453 73.56285095214844 57.78257751464844 72.59632873535156 59.62863922119141 C 71.419921875 61.87559509277344 71.92992401123047 64.63540649414062 73.8316650390625 66.31352233886719 L 73.8316650390625 72.54861450195312 L 77.26744842529297 70.24118041992188 C 77.39360809326172 70.15643310546875 77.55849456787109 70.15643310546875 77.68468475341797 70.24118041992188 L 81.12046051025391 72.54861450195312 L 81.12046051025391 66.31352233886719 C 82.30547332763672 65.27011108398438 82.98439788818359 63.76739501953125 82.98419189453125 62.18849182128906 C 82.98648834228516 59.65220642089844 81.25661468505859 57.44223022460938 78.79399871826172 56.83537292480469 C 78.35466003417969 56.72711181640625 77.91213989257812 56.67486572265625 77.47508239746094 56.67485809326172 M 77.47607421875 65.61619567871094 C 75.58298492431641 65.61619567871094 74.04833221435547 64.08156585693359 74.04833221435547 62.18849182128906 C 74.05048370361328 60.29631042480469 75.58387756347656 58.76292419433594 77.47607421875 58.76077270507812 C 79.369140625 58.76077270507812 80.90377807617188 60.29541015625 80.90377807617188 62.18849182128906 C 80.90377807617188 64.08156585693359 79.369140625 65.61619567871094 77.47607421875 65.61619567871094 M 77.47496795654297 53.67485046386719 L 77.47515106201172 53.67485046386719 C 78.15974426269531 53.67487335205078 78.84496307373047 53.75819396972656 79.51177215576172 53.92250061035156 C 81.35153198242188 54.37586975097656 83.00790405273438 55.44724273681641 84.17578125 56.93925476074219 C 85.34367370605469 58.4312744140625 85.98590850830078 60.29645538330078 85.98419189453125 62.19121551513672 C 85.98444366455078 64.13291931152344 85.31773376464844 66.00322723388672 84.12046051025391 67.49882507324219 L 84.12046051025391 78.17713928222656 L 77.47605895996094 73.71484375 L 70.8316650390625 78.17713165283203 L 70.8316650390625 67.49549865722656 C 69.96253204345703 66.40577697753906 69.36431884765625 65.10774230957031 69.10964202880859 63.72955322265625 C 68.76531982421875 61.8663330078125 69.05970764160156 59.91576385498047 69.93856048583984 58.23714447021484 C 71.41191864013672 55.42301940917969 74.29969787597656 53.67485046386719 77.47496795654297 53.67485046386719 Z M 77.47607421875 62.61619567871094 C 77.7119140625 62.61619567871094 77.90377807617188 62.42432403564453 77.90377807617188 62.18849182128906 C 77.90377807617188 61.95264434814453 77.7119140625 61.76077270507812 77.47607421875 61.76077270507812 C 77.24201202392578 61.76103973388672 77.04859924316406 61.95444488525391 77.04833221435547 62.19190216064453 C 77.04833221435547 62.42432403564453 77.24021148681641 62.61619567871094 77.47607421875 62.61619567871094 Z" stroke="none" fill="#fff"/>
        </g>
      </g>
    </g>
  </g>
</svg>
