<svg id="Component_18_1" data-name="Component 18 – 1" xmlns="http://www.w3.org/2000/svg" width="36" height="36" viewBox="0 0 36 36">
  <rect id="Rectangle_2024" data-name="Rectangle 2024" width="36" height="36" rx="10" fill="#fa0"/>
  <path id="Icon_awesome-ticket-alt" data-name="Icon awesome-ticket-alt" d="M4.365,7.976h7.271v3.715H4.365Zm10.3,1.858A1.333,1.333,0,0,0,16,11.167v2.667a1.333,1.333,0,0,1-1.333,1.333H1.333A1.333,1.333,0,0,1,0,13.833V11.167A1.333,1.333,0,0,0,1.333,9.833,1.333,1.333,0,0,0,0,8.5V5.833A1.333,1.333,0,0,1,1.333,4.5H14.667A1.333,1.333,0,0,1,16,5.833V8.5A1.333,1.333,0,0,0,14.667,9.833Z" transform="translate(10.5 8)" fill="rgba(255,255,255,0)" stroke="#fff" stroke-width="2"/>
</svg>
