<svg xmlns="http://www.w3.org/2000/svg" width="21.333" height="26" viewBox="0 0 21.333 26">
  <g id="Icon_material-notifications-none" data-name="Icon material-notifications-none" transform="translate(-5.333 -3.333)" fill="none">
    <path d="M16,29.333a2.675,2.675,0,0,0,2.667-2.667H13.333A2.675,2.675,0,0,0,16,29.333Zm8-8V14.667c0-4.093-2.173-7.52-6-8.427V5.333a2,2,0,0,0-4,0V6.24c-3.813.907-6,4.32-6,8.427v6.667L5.333,24v1.333H26.667V24L24,21.333Zm-2.667,1.333H10.667v-8c0-3.307,2.013-6,5.333-6s5.333,2.693,5.333,6Z" stroke="none"/>
    <path d="M 16 6.666664123535156 L 16 5.333333969116211 L 16 6.666664123535156 M 16 29.33333396911621 C 14.53332996368408 29.33333396911621 13.33333015441895 28.13333320617676 13.33333015441895 26.66666412353516 L 18.66666984558105 26.66666412353516 C 18.66666984558105 28.13333320617676 17.4666690826416 29.33333396911621 16 29.33333396911621 Z M 26.66666984558105 25.33333396911621 L 5.333330154418945 25.33333396911621 L 5.333330154418945 24.00000381469727 L 8 21.33333396911621 L 8 14.66666412353516 C 8 10.56000423431396 10.18667030334473 7.146664142608643 14 6.240004062652588 L 14 5.333333969116211 C 14 4.226664066314697 14.89332962036133 3.333333969116211 16 3.333333969116211 C 17.10667037963867 3.333333969116211 18 4.226664066314697 18 5.333333969116211 L 18 6.240004062652588 C 21.82666969299316 7.146664142608643 24 10.57333374023438 24 14.66666412353516 L 24 21.33333396911621 L 26.66666984558105 24.00000381469727 L 26.66666984558105 25.33333396911621 Z M 16 8.666664123535156 C 12.68000030517578 8.666664123535156 10.66666984558105 11.36000442504883 10.66666984558105 14.66666412353516 L 10.66666984558105 22.66666412353516 L 21.33333015441895 22.66666412353516 L 21.33333015441895 14.66666412353516 C 21.33333015441895 11.36000442504883 19.31999969482422 8.666664123535156 16 8.666664123535156 Z" stroke="none" fill="#00adee"/>
  </g>
</svg>
