<svg id="Notification_bule" xmlns="http://www.w3.org/2000/svg" width="50" height="50" viewBox="0 0 82 82">
  <path id="Path_31349" data-name="Path 31349" d="M41,0A41,41,0,1,1,0,41,41,41,0,0,1,41,0Z" fill="#00adee"/>
  <path id="Icon_material-notifications-none" data-name="Icon material-notifications-none" d="M23.849,48.466a4.643,4.643,0,0,0,4.629-4.629H19.22a4.643,4.643,0,0,0,4.629,4.629ZM37.737,34.579V23.007c0-7.106-3.773-13.054-10.415-14.628V6.805a3.472,3.472,0,0,0-6.944,0V8.379c-6.62,1.574-10.415,7.5-10.415,14.628V34.579L5.333,39.208v2.315H42.366V39.208l-4.629-4.629Zm-4.629,2.315H14.591V23.007c0-5.74,3.495-10.415,9.258-10.415s9.258,4.675,9.258,10.415Z" transform="translate(17.15 15.183)" fill="#fff"/>
</svg>
