<svg xmlns="http://www.w3.org/2000/svg" width="30.768" height="30.762" viewBox="0 0 30.768 30.762">
  <g id="settings" transform="translate(0.25 463.25)">
    <path id="Path_31480" data-name="Path 31480" d="M13.614-462.923a2.619,2.619,0,0,0-1.182.715,3.367,3.367,0,0,0-.7,1.8c-.083.473-.166.91-.177.975-.018.083-.136.16-.426.26-.219.077-.662.254-.975.4l-.579.26-.763-.532a8.885,8.885,0,0,0-1.088-.674,2.385,2.385,0,0,0-2.034.065,10.231,10.231,0,0,0-2.341,2.341,2.385,2.385,0,0,0-.065,2.034,8.882,8.882,0,0,0,.674,1.088l.532.763-.26.579c-.142.313-.319.757-.4.975-.1.29-.177.408-.26.426-.065.012-.5.095-.975.177-1.265.225-1.815.526-2.229,1.218A3.582,3.582,0,0,0,0-447.872a3.583,3.583,0,0,0,.372,2.181c.414.692.964.993,2.229,1.218.473.083.91.165.975.177.083.018.16.136.26.426.077.219.254.662.4.975l.26.579-.532.763a8.884,8.884,0,0,0-.674,1.088,2.385,2.385,0,0,0,.065,2.034,10.23,10.23,0,0,0,2.341,2.341,2.385,2.385,0,0,0,2.034.065,8.889,8.889,0,0,0,1.088-.674l.763-.532.579.26c.313.142.757.319.975.4.29.1.408.177.426.26.012.065.095.5.177.975.225,1.265.526,1.815,1.218,2.229a3.582,3.582,0,0,0,2.181.372,3.582,3.582,0,0,0,2.181-.372,2.312,2.312,0,0,0,.9-1.011c.319-.662.272-1.147-.136-1.4-.467-.284-.934-.071-1.159.52a1.12,1.12,0,0,1-.355.532l-.207.16H15.14c-1.182,0-1.224-.006-1.413-.136a1.094,1.094,0,0,1-.278-.3,12.635,12.635,0,0,1-.3-1.371c-.278-1.543-.236-1.49-1.253-1.821a12.544,12.544,0,0,1-1.454-.6,2.713,2.713,0,0,0-.922-.349c-.248,0-.461.124-1.6.94-1.176.834-1.271.822-2.4-.313s-1.147-1.224-.313-2.4c.816-1.141.94-1.354.94-1.6a2.759,2.759,0,0,0-.349-.922,13.3,13.3,0,0,1-.609-1.46c-.337-1.011-.29-.981-1.773-1.241-1.324-.237-1.513-.3-1.708-.573-.136-.2-.142-.231-.142-1.413s.006-1.218.136-1.407a1.1,1.1,0,0,1,.3-.278,11.872,11.872,0,0,1,1.371-.3c1.531-.272,1.472-.23,1.815-1.247a13.306,13.306,0,0,1,.609-1.46,2.758,2.758,0,0,0,.349-.922c0-.248-.124-.461-.94-1.6-.834-1.176-.822-1.271.313-2.4s1.224-1.147,2.4-.313c1.141.816,1.354.94,1.6.94a2.714,2.714,0,0,0,.922-.349,12.7,12.7,0,0,1,1.437-.6c.709-.231.9-.331,1.011-.538.03-.059.142-.621.254-1.253.236-1.312.3-1.507.573-1.7.2-.136.231-.142,1.413-.142s1.218.006,1.407.136a1.1,1.1,0,0,1,.278.3,12.638,12.638,0,0,1,.3,1.371c.278,1.543.236,1.49,1.253,1.821a12.549,12.549,0,0,1,1.454.6,2.714,2.714,0,0,0,.922.349c.248,0,.461-.124,1.6-.94,1.176-.833,1.271-.822,2.4.313s1.147,1.224.313,2.4c-.816,1.141-.94,1.354-.94,1.6a2.713,2.713,0,0,0,.349.922,12.683,12.683,0,0,1,.6,1.437c.231.709.331.9.538,1.011.059.03.621.142,1.253.254,1.312.237,1.507.3,1.7.573.136.2.142.231.142,1.419v1.218l-.16.207a1.12,1.12,0,0,1-.532.355c-.591.225-.8.692-.52,1.159.248.408.733.455,1.4.136a2.3,2.3,0,0,0,1.023-.916c.3-.5.361-.851.361-2.164a3.582,3.582,0,0,0-.372-2.181c-.426-.709-.952-.987-2.341-1.241-.532-.1-.975-.189-.981-.2s-.071-.189-.148-.4-.248-.644-.4-.958l-.254-.579.532-.763a8.882,8.882,0,0,0,.674-1.088,2.385,2.385,0,0,0-.065-2.034,10.231,10.231,0,0,0-2.341-2.341,2.385,2.385,0,0,0-2.034-.065,8.885,8.885,0,0,0-1.088.674l-.763.532-.579-.26c-.313-.142-.757-.319-.975-.4-.29-.1-.408-.177-.426-.26-.012-.065-.095-.5-.177-.975-.225-1.265-.526-1.815-1.218-2.229A3.614,3.614,0,0,0,15.1-463,9.92,9.92,0,0,0,13.614-462.923Z" transform="translate(0)" fill="#00adee" stroke="#00adee" stroke-width="0.5"/>
    <path id="Path_31481" data-name="Path 31481" d="M123.336-346.344a1.488,1.488,0,0,0-1.111,1.472c0,.5.189.768,1.466,2.075a12.413,12.413,0,0,1,1.283,1.437,1.094,1.094,0,0,1-.024.893,15.447,15.447,0,0,1-2.075,2.1,1.184,1.184,0,0,1-.81.106c-.266-.053-.372-.148-1.584-1.354-1.4-1.389-1.6-1.525-2.128-1.531a1.636,1.636,0,0,0-1.076.479c-.3.319-.384.591-.414,1.383a7.364,7.364,0,0,0,5.77,7.4,13.892,13.892,0,0,0,1.661.13,4.326,4.326,0,0,1,1.679.207,3.694,3.694,0,0,1,.727.384c.177.124,1.466,1.407,2.861,2.849s2.6,2.654,2.672,2.7a.948.948,0,0,0,.751-.012.815.815,0,0,0,.272-.278,1.01,1.01,0,0,0,.041-.727c-.03-.047-.739-.8-1.578-1.667-3.807-3.937-4.162-4.262-5-4.605a5.406,5.406,0,0,0-2.306-.378,7.02,7.02,0,0,1-1.744-.177,5.872,5.872,0,0,1-4.109-4.174,6.926,6.926,0,0,1-.154-1.856,14.064,14.064,0,0,1,1.029,1.017c.544.556,1.141,1.129,1.324,1.265a2.7,2.7,0,0,0,2.82.207,20.949,20.949,0,0,0,2.317-2.14,2.653,2.653,0,0,0,.284-3.216,15.585,15.585,0,0,0-1.241-1.366c-.585-.585-1.058-1.088-1.058-1.117a5.637,5.637,0,0,1,1.714.148,6.807,6.807,0,0,1,1.974.91,7.51,7.51,0,0,1,1.448,1.49,6.364,6.364,0,0,1,.863,2.034c.024.083.065.786.089,1.567a6.736,6.736,0,0,0,.171,1.827,5.271,5.271,0,0,0,.763,1.525c.3.39,5.3,5.551,5.468,5.64a.757.757,0,0,0,1.105-.863,25.485,25.485,0,0,0-2.672-2.9c-1.437-1.478-2.7-2.826-2.8-2.985-.414-.644-.461-.863-.508-2.394a7.124,7.124,0,0,0-.378-2.637,7.438,7.438,0,0,0-4.806-4.611A7.373,7.373,0,0,0,123.336-346.344Z" transform="translate(-109.219 -108.971)" fill="#00adee" stroke="#00adee" stroke-width="0.5"/>
  </g>
</svg>
