<svg xmlns="http://www.w3.org/2000/svg" width="29.996" height="29.268" viewBox="0 0 29.996 29.268">
  <g id="server" transform="translate(1.283 2.257)">
    <g id="Group_19250" data-name="Group 19250" transform="translate(0 -1)">
      <path id="Path_525" data-name="Path 525" d="M5.594-511.832a2.644,2.644,0,0,0-1.792,1.36c-.277.568-.3.826-.277,3.006.017,1.922.023,2.017.15,2.321a3.706,3.706,0,0,0,.305.579l.179.258-.179.259a3.7,3.7,0,0,0-.305.579c-.133.309-.133.36-.133,2.534s0,2.225.133,2.534a3.7,3.7,0,0,0,.305.579l.179.258-.179.259a3.7,3.7,0,0,0-.305.579c-.127.3-.133.4-.15,2.321-.012,1.27.006,2.118.04,2.326a2.591,2.591,0,0,0,2.074,2.045c.19.034,1.82.056,4.275.056h3.969v1.938l-.3.141a2.923,2.923,0,0,0-1.141,1.107l-.144.3H6.493c-5.7,0-5.807,0-6.032.112a.885.885,0,0,0-.461.73.885.885,0,0,0,.461.73c.225.112.328.112,6.032.112H12.3l.2.365a2.592,2.592,0,0,0,2.656,1.276A2.6,2.6,0,0,0,17-484.446l.2-.365H23c5.7,0,5.807,0,6.032-.112a.885.885,0,0,0,.461-.73.885.885,0,0,0-.461-.73c-.225-.112-.328-.112-6.032-.112H17.2l-.144-.3a2.947,2.947,0,0,0-1.135-1.107l-.305-.141v-1.938h3.969c2.454,0,4.084-.023,4.275-.056a2.591,2.591,0,0,0,2.074-2.045c.035-.208.052-1.056.04-2.326-.017-1.922-.023-2.017-.15-2.321a3.7,3.7,0,0,0-.305-.579l-.179-.259.179-.258a3.7,3.7,0,0,0,.305-.579c.132-.309.132-.36.132-2.534s0-2.225-.132-2.534a3.7,3.7,0,0,0-.305-.579l-.179-.259.179-.258a3.707,3.707,0,0,0,.305-.579c.127-.3.132-.4.15-2.321.012-1.27-.006-2.118-.04-2.326a2.591,2.591,0,0,0-2.074-2.045C23.47-511.905,5.968-511.905,5.594-511.832Zm18.2,1.736a.763.763,0,0,1,.346.337c.109.208.115.326.115,2.079s-.006,1.871-.115,2.079a.763.763,0,0,1-.346.337c-.225.112-.323.112-9.045.112s-8.82,0-9.045-.112a.763.763,0,0,1-.346-.337c-.109-.208-.115-.326-.115-2.079s.006-1.871.115-2.079a.815.815,0,0,1,.334-.332c.207-.112.363-.112,9.045-.118C23.476-510.208,23.568-510.208,23.793-510.1Zm0,6.743a.763.763,0,0,1,.346.337c.109.208.115.326.115,2.079s-.006,1.871-.115,2.079a.762.762,0,0,1-.346.337c-.225.112-.323.112-9.045.112s-8.82,0-9.045-.112a.762.762,0,0,1-.346-.337c-.109-.208-.115-.326-.115-2.079s.006-1.871.115-2.079a.816.816,0,0,1,.334-.332c.207-.112.363-.112,9.045-.118C23.476-503.466,23.568-503.466,23.793-503.353Zm0,6.743a.762.762,0,0,1,.346.337c.109.208.115.326.115,2.079s-.006,1.871-.115,2.079a.763.763,0,0,1-.346.337c-.225.112-.323.112-9.045.112s-8.82,0-9.045-.112a.763.763,0,0,1-.346-.337c-.109-.208-.115-.326-.115-2.079s.006-1.871.115-2.079a.815.815,0,0,1,.334-.332c.207-.112.363-.112,9.045-.118C23.476-496.723,23.568-496.723,23.793-496.611Zm-8.641,10.226a.885.885,0,0,1,.461.73.909.909,0,0,1-.864.843.909.909,0,0,1-.864-.843.9.9,0,0,1,.449-.725A.832.832,0,0,1,15.151-486.384Z" transform="translate(-1.033 510.881)" fill="#fff" stroke="#fff" stroke-width="0.5"/>
      <g id="Group_19247" data-name="Group 19247" transform="translate(6.07 2.285)">
        <path id="Path_526" data-name="Path 526" d="M121.429-451.885a.88.88,0,0,0-.429.709.868.868,0,0,0,.44.715c.209.1.319.11,3.683.11s3.474-.005,3.683-.11a.868.868,0,0,0,.44-.715.868.868,0,0,0-.44-.715c-.209-.1-.313-.11-3.694-.11C121.759-451.994,121.627-451.989,121.429-451.885Z" transform="translate(-121 452)" fill="#fff"/>
        <path id="Path_527" data-name="Path 527" d="M301.429-451.755a.881.881,0,0,0-.429.709,1.029,1.029,0,0,0,.11.385.868.868,0,0,0,.715.44.868.868,0,0,0,.715-.44,1.029,1.029,0,0,0,.11-.385.868.868,0,0,0-.44-.715A.777.777,0,0,0,301.429-451.755Z" transform="translate(-290.713 451.87)" fill="#fff"/>
        <path id="Path_528" data-name="Path 528" d="M361.429-451.755a.881.881,0,0,0-.429.709,1.03,1.03,0,0,0,.11.385.868.868,0,0,0,.715.44,1.031,1.031,0,0,0,.385-.11.868.868,0,0,0,.44-.715.868.868,0,0,0-.44-.715A.777.777,0,0,0,361.429-451.755Z" transform="translate(-347.247 451.87)" fill="#fff"/>
      </g>
      <g id="Group_19248" data-name="Group 19248" transform="translate(6.07 9.115)">
        <path id="Path_529" data-name="Path 529" d="M121.429-331.885a.88.88,0,0,0-.429.709.868.868,0,0,0,.44.715c.209.1.319.11,3.683.11s3.474-.005,3.683-.11a.868.868,0,0,0,.44-.715.868.868,0,0,0-.44-.715c-.209-.1-.313-.11-3.694-.11C121.759-331.994,121.627-331.989,121.429-331.885Z" transform="translate(-121 332)" fill="#fff"/>
        <path id="Path_530" data-name="Path 530" d="M301.429-331.755a.88.88,0,0,0-.429.709.868.868,0,0,0,.44.715,1.029,1.029,0,0,0,.385.11.868.868,0,0,0,.715-.44,1.029,1.029,0,0,0,.11-.385.868.868,0,0,0-.44-.715A.777.777,0,0,0,301.429-331.755Z" transform="translate(-290.713 331.87)" fill="#fff"/>
        <path id="Path_531" data-name="Path 531" d="M361.429-331.755a.88.88,0,0,0-.429.709.868.868,0,0,0,.44.715,1.03,1.03,0,0,0,.385.11,1.029,1.029,0,0,0,.385-.11.868.868,0,0,0,.44-.715.868.868,0,0,0-.44-.715A.777.777,0,0,0,361.429-331.755Z" transform="translate(-347.247 331.87)" fill="#fff"/>
      </g>
      <g id="Group_19249" data-name="Group 19249" transform="translate(6.07 15.866)">
        <path id="Path_532" data-name="Path 532" d="M121.429-211.885a.88.88,0,0,0-.429.709.868.868,0,0,0,.44.715c.209.1.319.11,3.683.11s3.474-.006,3.683-.11a.868.868,0,0,0,.44-.715.868.868,0,0,0-.44-.715c-.209-.1-.313-.11-3.694-.11C121.759-211.994,121.627-211.989,121.429-211.885Z" transform="translate(-121 212)" fill="#fff"/>
        <path id="Path_533" data-name="Path 533" d="M301.429-211.755a.88.88,0,0,0-.429.709,1.029,1.029,0,0,0,.11.385.868.868,0,0,0,.715.44.878.878,0,0,0,.825-.825.868.868,0,0,0-.44-.715A.777.777,0,0,0,301.429-211.755Z" transform="translate(-290.713 211.87)" fill="#fff"/>
        <path id="Path_534" data-name="Path 534" d="M361.429-211.755a.88.88,0,0,0-.429.709.868.868,0,0,0,.44.715,1.03,1.03,0,0,0,.385.11.878.878,0,0,0,.825-.825.868.868,0,0,0-.44-.715A.777.777,0,0,0,361.429-211.755Z" transform="translate(-347.247 211.87)" fill="#fff"/>
      </g>
    </g>
  </g>
</svg>
