<svg xmlns="http://www.w3.org/2000/svg" xmlns:xlink="http://www.w3.org/1999/xlink" width="112" height="112" viewBox="0 0 112 112">
  <defs>
    <filter id="Path_31368" x="0" y="0" width="112" height="112" filterUnits="userSpaceOnUse">
      <feOffset dx="3" dy="6" input="SourceAlpha"/>
      <feGaussianBlur stdDeviation="5" result="blur"/>
      <feFlood flood-color="#003763" flood-opacity="0.251"/>
      <feComposite operator="in" in2="blur"/>
      <feComposite in="SourceGraphic"/>
    </filter>
  </defs>
  <g id="Group_19245" data-name="Group 19245" transform="translate(12 9)">
    <g transform="matrix(1, 0, 0, 1, -12, -9)" filter="url(#Path_31368)">
      <path id="Path_31368-2" data-name="Path 31368" d="M41,0A41,41,0,1,1,0,41,41,41,0,0,1,41,0Z" transform="translate(12 9)" fill="#00adee"/>
    </g>
    <g id="server" transform="translate(22.951 22.963)">
      <path id="Path_525" data-name="Path 525" d="M6.846-511.818a3.247,3.247,0,0,0-2.193,1.706c-.338.712-.367,1.036-.338,3.772.021,2.411.028,2.531.183,2.912a4.694,4.694,0,0,0,.374.726l.219.324-.219.324a4.694,4.694,0,0,0-.374.726c-.162.388-.162.451-.162,3.18s0,2.792.162,3.18a4.691,4.691,0,0,0,.374.726l.219.324-.219.324a4.691,4.691,0,0,0-.374.726c-.155.381-.162.5-.183,2.912-.014,1.593.007,2.658.049,2.919A3.211,3.211,0,0,0,6.9-484.47c.233.042,2.228.07,5.231.07h4.858v2.432l-.367.176a3.62,3.62,0,0,0-1.4,1.389l-.176.374H7.946c-6.98,0-7.107,0-7.382.141a1.113,1.113,0,0,0-.564.917,1.113,1.113,0,0,0,.564.917c.275.141.4.141,7.382.141h7.107l.24.458a3.148,3.148,0,0,0,3.25,1.6,3.181,3.181,0,0,0,2.263-1.6l.24-.458h7.107c6.98,0,7.107,0,7.382-.141a1.113,1.113,0,0,0,.564-.917,1.113,1.113,0,0,0-.564-.917c-.275-.141-.4-.141-7.382-.141H21.045l-.176-.374a3.65,3.65,0,0,0-1.389-1.389l-.374-.176V-484.4h4.858c3,0,5-.028,5.231-.07a3.211,3.211,0,0,0,2.538-2.566c.042-.261.063-1.325.049-2.919-.021-2.411-.028-2.531-.183-2.912a4.691,4.691,0,0,0-.374-.726l-.219-.324.219-.324a4.692,4.692,0,0,0,.374-.726c.162-.388.162-.451.162-3.18s0-2.792-.162-3.18a4.694,4.694,0,0,0-.374-.726l-.219-.324.219-.324a4.694,4.694,0,0,0,.374-.726c.155-.381.162-.5.183-2.912.014-1.593-.007-2.658-.049-2.919a3.211,3.211,0,0,0-2.538-2.566C28.723-511.91,7.3-511.91,6.846-511.818Zm22.272,2.179a.944.944,0,0,1,.423.423c.134.261.141.409.141,2.609s-.007,2.348-.141,2.609a.945.945,0,0,1-.423.423c-.275.141-.395.141-11.069.141s-10.794,0-11.069-.141A.945.945,0,0,1,6.557-504c-.134-.261-.141-.409-.141-2.609s.007-2.348.141-2.609a1.011,1.011,0,0,1,.409-.416c.254-.141.444-.141,11.069-.148C28.73-509.781,28.842-509.781,29.117-509.64Zm0,8.46a.945.945,0,0,1,.423.423c.134.261.141.409.141,2.609s-.007,2.348-.141,2.609a.945.945,0,0,1-.423.423c-.275.141-.395.141-11.069.141s-10.794,0-11.069-.141a.945.945,0,0,1-.423-.423c-.134-.261-.141-.409-.141-2.609s.007-2.348.141-2.609a1.011,1.011,0,0,1,.409-.416c.254-.141.444-.141,11.069-.148C28.73-501.32,28.842-501.32,29.117-501.179Zm0,8.46a.944.944,0,0,1,.423.423c.134.261.141.409.141,2.609s-.007,2.348-.141,2.609a.944.944,0,0,1-.423.423c-.275.141-.395.141-11.069.141s-10.794,0-11.069-.141a.944.944,0,0,1-.423-.423c-.134-.261-.141-.409-.141-2.609s.007-2.348.141-2.609a1.011,1.011,0,0,1,.409-.416c.254-.141.444-.141,11.069-.148C28.73-492.86,28.842-492.86,29.117-492.719ZM18.542-479.888a1.113,1.113,0,0,1,.564.917,1.126,1.126,0,0,1-1.058,1.058,1.126,1.126,0,0,1-1.058-1.058,1.129,1.129,0,0,1,.55-.909A1,1,0,0,1,18.542-479.888Z" transform="translate(0 511.888)" fill="#fff"/>
      <path id="Path_526" data-name="Path 526" d="M121.55-451.852a1.129,1.129,0,0,0-.55.909,1.113,1.113,0,0,0,.564.917c.268.134.409.141,4.724.141s4.456-.007,4.724-.141a1.113,1.113,0,0,0,.564-.917,1.113,1.113,0,0,0-.564-.917c-.268-.134-.4-.141-4.738-.141C121.973-451.993,121.8-451.986,121.55-451.852Z" transform="translate(-112.469 456.222)" fill="#fff"/>
      <path id="Path_527" data-name="Path 527" d="M301.55-451.724a1.129,1.129,0,0,0-.55.909,1.32,1.32,0,0,0,.141.494,1.113,1.113,0,0,0,.917.564,1.113,1.113,0,0,0,.917-.564,1.321,1.321,0,0,0,.141-.494,1.113,1.113,0,0,0-.564-.917A1,1,0,0,0,301.55-451.724Z" transform="translate(-279.779 456.095)" fill="#fff"/>
      <path id="Path_528" data-name="Path 528" d="M361.55-451.724a1.129,1.129,0,0,0-.55.909,1.321,1.321,0,0,0,.141.494,1.113,1.113,0,0,0,.917.564,1.321,1.321,0,0,0,.494-.141,1.113,1.113,0,0,0,.564-.917,1.113,1.113,0,0,0-.564-.917A1,1,0,0,0,361.55-451.724Z" transform="translate(-335.549 456.095)" fill="#fff"/>
      <path id="Path_529" data-name="Path 529" d="M121.55-331.852a1.129,1.129,0,0,0-.55.909,1.113,1.113,0,0,0,.564.917c.268.134.409.141,4.724.141s4.456-.007,4.724-.141a1.113,1.113,0,0,0,.564-.917,1.113,1.113,0,0,0-.564-.917c-.268-.134-.4-.141-4.738-.141C121.973-331.993,121.8-331.986,121.55-331.852Z" transform="translate(-112.469 344.682)" fill="#fff"/>
      <path id="Path_530" data-name="Path 530" d="M301.55-331.724a1.129,1.129,0,0,0-.55.909,1.113,1.113,0,0,0,.564.917,1.32,1.32,0,0,0,.493.141,1.113,1.113,0,0,0,.917-.564,1.32,1.32,0,0,0,.141-.494,1.113,1.113,0,0,0-.564-.917A1,1,0,0,0,301.55-331.724Z" transform="translate(-279.779 344.555)" fill="#fff"/>
      <path id="Path_531" data-name="Path 531" d="M361.55-331.724a1.129,1.129,0,0,0-.55.909,1.113,1.113,0,0,0,.564.917,1.32,1.32,0,0,0,.494.141,1.32,1.32,0,0,0,.494-.141,1.113,1.113,0,0,0,.564-.917,1.113,1.113,0,0,0-.564-.917A1,1,0,0,0,361.55-331.724Z" transform="translate(-335.549 344.555)" fill="#fff"/>
      <path id="Path_532" data-name="Path 532" d="M121.55-211.852a1.129,1.129,0,0,0-.55.909,1.113,1.113,0,0,0,.564.917c.268.134.409.141,4.724.141s4.456-.007,4.724-.141a1.113,1.113,0,0,0,.564-.917,1.113,1.113,0,0,0-.564-.917c-.268-.134-.4-.141-4.738-.141C121.973-211.993,121.8-211.986,121.55-211.852Z" transform="translate(-112.469 233.143)" fill="#fff"/>
      <path id="Path_533" data-name="Path 533" d="M301.55-211.724a1.129,1.129,0,0,0-.55.909,1.32,1.32,0,0,0,.141.493,1.113,1.113,0,0,0,.917.564,1.126,1.126,0,0,0,1.058-1.058,1.113,1.113,0,0,0-.564-.917A1,1,0,0,0,301.55-211.724Z" transform="translate(-279.779 233.015)" fill="#fff"/>
      <path id="Path_534" data-name="Path 534" d="M361.55-211.724a1.129,1.129,0,0,0-.55.909,1.113,1.113,0,0,0,.564.917,1.321,1.321,0,0,0,.494.141,1.126,1.126,0,0,0,1.058-1.058,1.113,1.113,0,0,0-.564-.917A1,1,0,0,0,361.55-211.724Z" transform="translate(-335.549 233.015)" fill="#fff"/>
    </g>
  </g>
</svg>
