<svg xmlns="http://www.w3.org/2000/svg" width="27.154" height="27.154" viewBox="0 0 27.154 27.154">
  <g id="Icon_feather-settings" data-name="Icon feather-settings" transform="translate(1.25 1.25)">
    <path id="Path_504" data-name="Path 504" d="M18.724,15.362A3.362,3.362,0,1,1,15.362,12,3.362,3.362,0,0,1,18.724,15.362Z" transform="translate(-3.035 -3.035)" fill="none" stroke="#00adee" stroke-linecap="round" stroke-linejoin="round" stroke-width="2.5"/>
    <path id="Path_505" data-name="Path 505" d="M21.953,17.022a1.849,1.849,0,0,0,.37,2.04l.067.067A2.243,2.243,0,1,1,19.219,22.3l-.067-.067a1.864,1.864,0,0,0-3.16,1.322v.191a2.241,2.241,0,1,1-4.483,0v-.1a1.849,1.849,0,0,0-1.21-1.692,1.849,1.849,0,0,0-2.04.37l-.067.067A2.243,2.243,0,1,1,5.02,19.219l.067-.067a1.864,1.864,0,0,0-1.322-3.16H3.575a2.241,2.241,0,1,1,0-4.483h.1A1.849,1.849,0,0,0,5.368,10.3,1.849,1.849,0,0,0,5,8.259l-.067-.067A2.243,2.243,0,1,1,8.1,5.02l.067.067a1.849,1.849,0,0,0,2.04.37h.09a1.849,1.849,0,0,0,1.121-1.692V3.575a2.241,2.241,0,1,1,4.483,0v.1A1.864,1.864,0,0,0,19.062,5l.067-.067A2.243,2.243,0,1,1,22.3,8.1l-.067.067a1.849,1.849,0,0,0-.37,2.04v.09a1.849,1.849,0,0,0,1.692,1.121h.191a2.241,2.241,0,0,1,0,4.483h-.1a1.849,1.849,0,0,0-1.692,1.121Z" transform="translate(-1.333 -1.333)" fill="none" stroke="#00adee" stroke-linecap="round" stroke-linejoin="round" stroke-width="2.5"/>
  </g>
</svg>
