<svg xmlns="http://www.w3.org/2000/svg" width="334" height="50" viewBox="0 0 334 50">
  <g id="Group_19147" data-name="Group 19147" transform="translate(-558 -53)">
    <g id="L_T_Technology_Services_Regular_white_1_" data-name="L&amp;T Technology Services_Regular_white (1)" transform="translate(486.7 5.6)">
      <path id="Path_31350" data-name="Path 31350" d="M92.879,94l10.673-18.512H96.328l3.589-6.233h16.965l-3.589,6.233h-6.152L96.328,94.284a21.861,21.861,0,1,0,0-43.721,22.432,22.432,0,0,0-2.563.14L83,69.26h13.33l-3.635,6.233H75.774L89.617,51.586A21.864,21.864,0,0,0,92.879,94m3.449-46.6A25,25,0,1,1,71.3,72.377,25.107,25.107,0,0,1,96.328,47.4" transform="translate(0 0)" fill="#003763" fill-rule="evenodd"/>
      <path id="Path_31351" data-name="Path 31351" d="M477.373,86.372c-.559-.14-1.165-.28-1.724-.373a11.342,11.342,0,0,0-1.771-.14,8.583,8.583,0,0,0-1.538.14,7.38,7.38,0,0,0-1.445.419,4.05,4.05,0,0,0-1.212.746,3.215,3.215,0,0,0-.839,1.119,3.751,3.751,0,0,0-.326,1.538,2.364,2.364,0,0,0,.326,1.3,3.189,3.189,0,0,0,.792.979,8.246,8.246,0,0,0,1.025.746c.373.233.7.466,1.025.652a6.035,6.035,0,0,1,.792.7,1.846,1.846,0,0,1,.326.886,1.07,1.07,0,0,1-.186.652,1.139,1.139,0,0,1-.513.419,4.1,4.1,0,0,1-.7.233,4.591,4.591,0,0,1-.792.093,4.7,4.7,0,0,1-1.165-.14,3.057,3.057,0,0,1-.979-.373,8.685,8.685,0,0,1-.932-.466l-.7,2.563a6.8,6.8,0,0,0,1.818.559,13.265,13.265,0,0,0,1.911.186,9.239,9.239,0,0,0,1.631-.14,7.835,7.835,0,0,0,1.491-.419,4.419,4.419,0,0,0,1.258-.792,2.838,2.838,0,0,0,.839-1.212,4.478,4.478,0,0,0,.326-1.678,2.364,2.364,0,0,0-.326-1.305A4.044,4.044,0,0,0,475,92.245c-.326-.28-.652-.559-.979-.792-.373-.233-.7-.466-1.025-.653a5.919,5.919,0,0,1-.792-.653,1.584,1.584,0,0,1-.326-.7,1.166,1.166,0,0,1,.186-.606,2.069,2.069,0,0,1,.513-.373,3.881,3.881,0,0,1,.7-.186,4.009,4.009,0,0,1,.746-.047,4.506,4.506,0,0,1,1.352.186,7.071,7.071,0,0,1,1.3.419ZM457.7,91.08a6.375,6.375,0,0,1,.746-1.491,3.214,3.214,0,0,1,1.072-1.025,3.377,3.377,0,0,1,1.631-.373,1.813,1.813,0,0,1,2.051,2.051v.419c0,.14-.047.28-.047.419Zm8.3,2.237c.093-.466.186-.932.233-1.352.047-.466.093-.932.093-1.4a5.037,5.037,0,0,0-.652-2.61,4.173,4.173,0,0,0-1.771-1.585,6.584,6.584,0,0,0-2.657-.513,6.211,6.211,0,0,0-2.284.419,8.181,8.181,0,0,0-1.958,1.119,7.4,7.4,0,0,0-1.491,1.678,8.3,8.3,0,0,0-.979,2.051,7.431,7.431,0,0,0-.326,2.237,6.026,6.026,0,0,0,.419,2.377,4.111,4.111,0,0,0,1.212,1.678,4.483,4.483,0,0,0,1.864.979,8.024,8.024,0,0,0,2.424.326,12.365,12.365,0,0,0,3.962-.7l.419-2.517a8.851,8.851,0,0,1-1.864.652,9,9,0,0,1-1.957.233,4.453,4.453,0,0,1-1.864-.326,2.189,2.189,0,0,1-1.165-.979,3.5,3.5,0,0,1-.419-1.818H466Zm-11.7-6.991a12.122,12.122,0,0,0-3.216-.466,7.968,7.968,0,0,0-3.03.559,6.615,6.615,0,0,0-3.729,4.008,8.977,8.977,0,0,0-.513,3.029,5.9,5.9,0,0,0,.653,2.8,4.66,4.66,0,0,0,1.818,1.864,5.9,5.9,0,0,0,2.8.653c.513,0,1.072-.047,1.585-.093a6.457,6.457,0,0,0,1.538-.466l.373-2.517a4.97,4.97,0,0,1-.886.326,6,6,0,0,1-.886.186,5.137,5.137,0,0,1-.839.093,2.778,2.778,0,0,1-1.352-.28,1.88,1.88,0,0,1-.839-.746,3.956,3.956,0,0,1-.419-1.025,3.294,3.294,0,0,1-.093-1.165,5.349,5.349,0,0,1,.28-1.724,4.172,4.172,0,0,1,.792-1.491,3.7,3.7,0,0,1,2.983-1.491,5.2,5.2,0,0,1,1.258.14,3.732,3.732,0,0,1,1.072.466ZM439.808,83.9h3.216l.652-3.076H440.46ZM436.638,98.49h3.216l2.657-12.351h-3.216Zm-10.16,0h3.542l7.224-12.351h-3.4l-4.847,9.042h-.047l-1.258-9.042h-3.263Zm-12.444,0h3.216l1.165-5.546a6.12,6.12,0,0,1,.466-1.491,7.259,7.259,0,0,1,.746-1.305,3.625,3.625,0,0,1,1.119-.932,3.06,3.06,0,0,1,1.491-.326,3.3,3.3,0,0,1,.653.047c.233.047.419.093.606.14l.653-3.123a2.361,2.361,0,0,0-.606-.093c-.186,0-.419-.047-.606-.047a3.2,3.2,0,0,0-1.119.233,3.307,3.307,0,0,0-1.025.606,4.99,4.99,0,0,0-.886.839,5.583,5.583,0,0,0-.606.979h-.047l.419-2.33H416.5c-.093.559-.186,1.119-.28,1.631Zm-9.555-7.411a6.37,6.37,0,0,1,.746-1.491,3.213,3.213,0,0,1,1.072-1.025,3.377,3.377,0,0,1,1.631-.373,1.813,1.813,0,0,1,2.051,2.051v.419c0,.14-.047.28-.047.419Zm8.249,2.237c.093-.466.186-.932.233-1.352.047-.466.093-.932.093-1.4a5.038,5.038,0,0,0-.653-2.61,4.173,4.173,0,0,0-1.771-1.585,6.584,6.584,0,0,0-2.657-.513,6.211,6.211,0,0,0-2.284.419,8.181,8.181,0,0,0-1.958,1.119,7.4,7.4,0,0,0-1.491,1.678,8.3,8.3,0,0,0-.979,2.051,7.43,7.43,0,0,0-.326,2.237,6.026,6.026,0,0,0,.419,2.377,4.111,4.111,0,0,0,1.212,1.678,4.483,4.483,0,0,0,1.864.979,8.024,8.024,0,0,0,2.424.326,12.365,12.365,0,0,0,3.962-.7l.42-2.517a8.852,8.852,0,0,1-1.864.652,9,9,0,0,1-1.957.233,4.453,4.453,0,0,1-1.864-.326,2.189,2.189,0,0,1-1.165-.979,3.5,3.5,0,0,1-.419-1.818h8.762ZM400.1,82.224a8.553,8.553,0,0,0-2.144-.559,18.13,18.13,0,0,0-2.191-.186,8.164,8.164,0,0,0-1.864.186,8.859,8.859,0,0,0-1.678.559,5.812,5.812,0,0,0-1.4.979,4.283,4.283,0,0,0-.932,1.445,4.748,4.748,0,0,0-.326,1.864,3.517,3.517,0,0,0,.326,1.631,3.442,3.442,0,0,0,.792,1.165,7.2,7.2,0,0,0,1.119.886c.419.233.792.466,1.212.7a11.715,11.715,0,0,1,1.119.7,2.71,2.71,0,0,1,.792.839,2.244,2.244,0,0,1,.326,1.119,2.271,2.271,0,0,1-.28,1.165,2.321,2.321,0,0,1-.7.792,2.913,2.913,0,0,1-1.025.466,4.7,4.7,0,0,1-1.165.14,7.114,7.114,0,0,1-1.4-.14,6.511,6.511,0,0,1-1.352-.419c-.466-.186-.886-.373-1.3-.559l-.886,2.843a13.289,13.289,0,0,0,2.33.653,14.311,14.311,0,0,0,2.424.28,10.8,10.8,0,0,0,2.144-.186,7.3,7.3,0,0,0,1.864-.606,4.87,4.87,0,0,0,1.491-1.072,5.465,5.465,0,0,0,1.025-1.585,6.07,6.07,0,0,0,.373-2.144,4.068,4.068,0,0,0-.326-1.724,4.419,4.419,0,0,0-.792-1.258,5.41,5.41,0,0,0-1.119-.932c-.419-.28-.792-.513-1.212-.746a11.729,11.729,0,0,1-1.119-.7,3.2,3.2,0,0,1-.792-.792,1.757,1.757,0,0,1-.326-.979,1.344,1.344,0,0,1,.28-.886,2.195,2.195,0,0,1,.7-.606,6.792,6.792,0,0,1,.885-.326,7.006,7.006,0,0,1,.932-.093,9.84,9.84,0,0,1,1.212.093,8.5,8.5,0,0,1,1.165.326,7.437,7.437,0,0,1,1.072.466Zm-31.646,3.915L370.643,99.1a9.19,9.19,0,0,1-1.025,1.352,3.6,3.6,0,0,1-.886.7,2.02,2.02,0,0,1-.886.186,3.346,3.346,0,0,1-.792-.093c-.233-.047-.419-.14-.606-.186l-.7,2.424a9.308,9.308,0,0,0,1.212.233,9.84,9.84,0,0,0,1.212.093,4.288,4.288,0,0,0,1.771-.326,4.909,4.909,0,0,0,1.352-.792,7.9,7.9,0,0,0,1.025-1.119c.28-.419.559-.839.792-1.258l8.343-14.215h-3.542l-4.894,9.182h-.047l-1.212-9.135Zm-6.2,4.8a7.966,7.966,0,0,1-.14,1.445,6.511,6.511,0,0,1-.419,1.352,4.835,4.835,0,0,1-.7,1.165,2.89,2.89,0,0,1-1.025.792,3.042,3.042,0,0,1-1.352.28,1.835,1.835,0,0,1-1.165-.373,2.414,2.414,0,0,1-.653-.979,4.311,4.311,0,0,1-.186-1.352,5.691,5.691,0,0,1,.14-1.212,6.867,6.867,0,0,1,.373-1.305,4.708,4.708,0,0,1,.652-1.165,2.644,2.644,0,0,1,.932-.839,2.309,2.309,0,0,1,1.258-.326,2.121,2.121,0,0,1,1.258.373,2.568,2.568,0,0,1,.792.932A2.791,2.791,0,0,1,362.253,90.94Zm-9.881,12.025a14.3,14.3,0,0,0,2.424.652,15.25,15.25,0,0,0,2.517.186,7.669,7.669,0,0,0,2.89-.466,5.088,5.088,0,0,0,2-1.352,6.92,6.92,0,0,0,1.3-2.1,14.7,14.7,0,0,0,.792-2.75l1.958-9.275c.093-.373.14-.746.233-1.025a7.2,7.2,0,0,1,.186-.7H363.6l-.373,1.818a5.408,5.408,0,0,0-.932-1.119,3.357,3.357,0,0,0-1.258-.7,4.1,4.1,0,0,0-1.538-.233,5.583,5.583,0,0,0-3.915,1.538,5.665,5.665,0,0,0-1.258,1.678,9.448,9.448,0,0,0-.792,2,8.553,8.553,0,0,0-.28,2.191,8.664,8.664,0,0,0,.233,1.958,5.546,5.546,0,0,0,.792,1.678,3.291,3.291,0,0,0,1.352,1.165,4.125,4.125,0,0,0,1.911.419,4.875,4.875,0,0,0,1.678-.28,5.438,5.438,0,0,0,1.445-.792,5.283,5.283,0,0,0,1.025-1.258h.047a16.653,16.653,0,0,1-.466,1.631,6.259,6.259,0,0,1-.559,1.4,4.843,4.843,0,0,1-.792,1.119,3.337,3.337,0,0,1-1.165.746,4.6,4.6,0,0,1-1.724.28,6.328,6.328,0,0,1-1.352-.14,12.494,12.494,0,0,1-1.258-.326c-.419-.14-.839-.326-1.258-.466Zm-6.478-17.1a7.426,7.426,0,0,0-2.89.559,7.216,7.216,0,0,0-4.428,6.758,6.551,6.551,0,0,0,.652,2.983,4.83,4.83,0,0,0,1.911,1.958,6.068,6.068,0,0,0,3.029.7,7.729,7.729,0,0,0,2.983-.559,7.251,7.251,0,0,0,2.33-1.538,6.256,6.256,0,0,0,1.491-2.377,7.877,7.877,0,0,0,.513-2.983,5.868,5.868,0,0,0-.419-2.284,4.909,4.909,0,0,0-1.165-1.724,5.308,5.308,0,0,0-1.771-1.072A4.8,4.8,0,0,0,345.894,85.86Zm-1.445,10.393a2.823,2.823,0,0,1-1.491-.373,1.932,1.932,0,0,1-.792-1.025,3.719,3.719,0,0,1-.233-1.491,7.112,7.112,0,0,1,.14-1.4,4.651,4.651,0,0,1,.466-1.352,4.975,4.975,0,0,1,.746-1.165,4.745,4.745,0,0,1,1.072-.839,3.39,3.39,0,0,1,1.352-.326,2.717,2.717,0,0,1,1.165.233,1.7,1.7,0,0,1,.746.652,2.31,2.31,0,0,1,.373.932,3.041,3.041,0,0,1,.093,1.119,7.013,7.013,0,0,1-.14,1.352,5.178,5.178,0,0,1-.466,1.352,4.977,4.977,0,0,1-.746,1.165,4.486,4.486,0,0,1-1.025.839A2.019,2.019,0,0,1,344.449,96.253Zm-13,2.237h3.216l3.822-17.99h-3.216ZM324.595,85.86a7.426,7.426,0,0,0-2.89.559,7.216,7.216,0,0,0-4.428,6.758,6.552,6.552,0,0,0,.652,2.983,4.83,4.83,0,0,0,1.911,1.958,6.068,6.068,0,0,0,3.029.7,7.728,7.728,0,0,0,2.983-.559,7.251,7.251,0,0,0,2.33-1.538,6.255,6.255,0,0,0,1.491-2.377,7.878,7.878,0,0,0,.513-2.983,5.869,5.869,0,0,0-.419-2.284,4.909,4.909,0,0,0-1.165-1.724,5.308,5.308,0,0,0-1.771-1.072A4.8,4.8,0,0,0,324.595,85.86ZM323.15,96.253a2.822,2.822,0,0,1-1.491-.373,1.932,1.932,0,0,1-.792-1.025,3.718,3.718,0,0,1-.233-1.491,7.112,7.112,0,0,1,.14-1.4,4.652,4.652,0,0,1,.466-1.352,4.976,4.976,0,0,1,.746-1.165,4.745,4.745,0,0,1,1.072-.839,3.39,3.39,0,0,1,1.352-.326,2.717,2.717,0,0,1,1.165.233,1.7,1.7,0,0,1,.746.652,2.311,2.311,0,0,1,.373.932,3.04,3.04,0,0,1,.093,1.119,7.011,7.011,0,0,1-.14,1.352,5.177,5.177,0,0,1-.466,1.352,4.977,4.977,0,0,1-.746,1.165,4.485,4.485,0,0,1-1.025.839A2.019,2.019,0,0,1,323.15,96.253ZM302.177,98.49h3.216l1.3-6.2a7.972,7.972,0,0,1,.419-1.4,5.351,5.351,0,0,1,.652-1.258,3.71,3.71,0,0,1,.979-.932,2.718,2.718,0,0,1,1.4-.373,2.121,2.121,0,0,1,.932.233,1.275,1.275,0,0,1,.606.606,1.929,1.929,0,0,1,.233.886,11.444,11.444,0,0,1-.093,1.3c-.093.419-.14.839-.233,1.258l-1.212,5.826H313.6l1.305-6.012q.14-.559.28-1.258a7.11,7.11,0,0,0,.14-1.4,4.108,4.108,0,0,0-.513-2.1,3.262,3.262,0,0,0-1.4-1.352,4.348,4.348,0,0,0-2.1-.466,5.876,5.876,0,0,0-1.3.186,8.8,8.8,0,0,0-1.165.513,5.411,5.411,0,0,0-.979.746h-.047l.233-1.212h-3.123a6.645,6.645,0,0,1-.14.746c-.047.326-.14.652-.186,1.025Zm-14.635,0h3.216l1.3-6.2a7.972,7.972,0,0,1,.42-1.4,5.35,5.35,0,0,1,.652-1.258,3.709,3.709,0,0,1,.979-.932,2.718,2.718,0,0,1,1.4-.373,2.122,2.122,0,0,1,.932.233,1.275,1.275,0,0,1,.606.606,1.928,1.928,0,0,1,.233.886,11.451,11.451,0,0,1-.093,1.3c-.093.419-.14.839-.233,1.258l-1.212,5.826h3.216l1.3-6.012q.14-.559.28-1.258a7.112,7.112,0,0,0,.14-1.4,4.108,4.108,0,0,0-.513-2.1,3.262,3.262,0,0,0-1.4-1.352,4.413,4.413,0,0,0-2.144-.466,5.876,5.876,0,0,0-1.3.186,8.8,8.8,0,0,0-1.165.513,5.409,5.409,0,0,0-.979.746h-.047l1.538-6.8h-3.216Zm.326-12.164a12.121,12.121,0,0,0-3.216-.466,7.968,7.968,0,0,0-3.029.559,6.615,6.615,0,0,0-3.729,4.008,8.978,8.978,0,0,0-.513,3.029,5.9,5.9,0,0,0,.653,2.8,4.66,4.66,0,0,0,1.818,1.864,5.9,5.9,0,0,0,2.8.653c.513,0,1.072-.047,1.585-.093a6.456,6.456,0,0,0,1.538-.466l.373-2.517a4.97,4.97,0,0,1-.886.326,6,6,0,0,1-.885.186,5.138,5.138,0,0,1-.839.093,2.778,2.778,0,0,1-1.352-.28,1.88,1.88,0,0,1-.839-.746,3.954,3.954,0,0,1-.419-1.025,3.294,3.294,0,0,1-.093-1.165,5.349,5.349,0,0,1,.28-1.724,4.173,4.173,0,0,1,.792-1.491,3.7,3.7,0,0,1,2.983-1.491,5.2,5.2,0,0,1,1.258.14,3.732,3.732,0,0,1,1.072.466ZM267.361,91.08a6.37,6.37,0,0,1,.746-1.491,3.213,3.213,0,0,1,1.072-1.025,3.377,3.377,0,0,1,1.631-.373,1.813,1.813,0,0,1,2.051,2.051v.419c0,.14-.047.28-.047.419Zm8.249,2.237c.093-.466.186-.932.233-1.352.047-.466.093-.932.093-1.4a5.038,5.038,0,0,0-.652-2.61,4.173,4.173,0,0,0-1.771-1.585,6.584,6.584,0,0,0-2.657-.513,6.211,6.211,0,0,0-2.284.419,8.182,8.182,0,0,0-1.957,1.119,7.4,7.4,0,0,0-1.491,1.678,8.3,8.3,0,0,0-.979,2.051,7.43,7.43,0,0,0-.326,2.237,6.025,6.025,0,0,0,.419,2.377,4.111,4.111,0,0,0,1.212,1.678,4.483,4.483,0,0,0,1.864.979,8.024,8.024,0,0,0,2.424.326,12.366,12.366,0,0,0,3.962-.7l.419-2.517a8.85,8.85,0,0,1-1.864.652,9,9,0,0,1-1.957.233,4.453,4.453,0,0,1-1.864-.326,2.189,2.189,0,0,1-1.165-.979,3.5,3.5,0,0,1-.419-1.818h8.762Zm-22.045-8.949h4.707l-3.029,14.075h3.5l3.03-14.075h4.707l.559-2.657h-12.91Zm-20.461,0h4.707l-3.029,14.075h3.5l3.029-14.075h4.707l.559-2.657h-12.91Zm-5.686.886a1.773,1.773,0,0,1-.28,1.025,2.668,2.668,0,0,1-.7.746,5.972,5.972,0,0,1-.932.513,8.035,8.035,0,0,1-.979.326c-.14-.186-.28-.419-.419-.653a3.608,3.608,0,0,1-.326-.746,2.111,2.111,0,0,1-.14-.746,1.931,1.931,0,0,1,.28-1.072,1.7,1.7,0,0,1,.746-.653,2.589,2.589,0,0,1,1.072-.233,2.177,2.177,0,0,1,.792.14,1.193,1.193,0,0,1,.606.466A1.344,1.344,0,0,1,227.419,85.254Zm-1.305,10.16a3.577,3.577,0,0,1-.839.466,3.868,3.868,0,0,1-.979.28,6.98,6.98,0,0,1-1.025.093,4.079,4.079,0,0,1-1.119-.14,2.845,2.845,0,0,1-.932-.419,2.046,2.046,0,0,1-.653-.746,2.8,2.8,0,0,1,0-2.237,2.131,2.131,0,0,1,.653-.792,5.935,5.935,0,0,1,.886-.606,3.956,3.956,0,0,1,1.025-.419Zm2,3.076h3.589l-1.958-2.843a7.811,7.811,0,0,0,1.4-1.864,11.043,11.043,0,0,0,.932-2.144,12.483,12.483,0,0,0,.513-2.284h-2.936a5.2,5.2,0,0,1-.233,1.445,6.738,6.738,0,0,1-.513,1.352c-.233.419-.466.839-.746,1.258l-2.424-3.5a10.111,10.111,0,0,0,1.631-.7,10.414,10.414,0,0,0,1.4-.932,3.85,3.85,0,0,0,.979-1.305,4.075,4.075,0,0,0,.373-1.724,3.405,3.405,0,0,0-.28-1.4,4.4,4.4,0,0,0-.746-1.072,4.044,4.044,0,0,0-1.072-.746,5.7,5.7,0,0,0-1.258-.419,5.786,5.786,0,0,0-1.258-.14,6.228,6.228,0,0,0-1.864.28,4.6,4.6,0,0,0-1.585.792,4.278,4.278,0,0,0-1.119,1.3,3.93,3.93,0,0,0-.419,1.864,4.936,4.936,0,0,0,.14,1.258,3.652,3.652,0,0,0,.419.979,9.977,9.977,0,0,0,.606.886,8.4,8.4,0,0,0-1.771.746,5.71,5.71,0,0,0-1.445,1.119,5.651,5.651,0,0,0-1.025,1.491,4.75,4.75,0,0,0-.373,1.864,4.289,4.289,0,0,0,.326,1.771,4.531,4.531,0,0,0,.886,1.352,4.431,4.431,0,0,0,1.305.932,6.3,6.3,0,0,0,1.585.513,10.838,10.838,0,0,0,1.724.186,11.473,11.473,0,0,0,1.212-.093,11.92,11.92,0,0,0,1.258-.233,8.524,8.524,0,0,0,1.165-.373,4.408,4.408,0,0,0,.932-.513Zm-22.418,0h9.881l.559-2.657h-6.572l2.983-14.075H209.2Z" transform="translate(-72.073 -17.732)" fill="#003763"/>
    </g>
  </g>
</svg>
